# Blender 4.4.1
# www.blender.org
mtllib stone.mtl
o Cube
v -0.428145 0.355847 -0.197445
v -0.173228 0.469376 0.055083
v -0.090568 0.469926 0.060296
v -0.083462 0.475487 0.002439
v -0.494700 0.476237 0.059003
v -0.356731 0.437699 0.062798
v -0.276788 0.307901 -0.229486
v -0.172633 0.296735 -0.249836
v -0.341956 0.218548 0.239344
v -0.411221 0.255632 0.174736
v -0.141412 0.040874 -0.064898
v -0.136229 0.054606 0.033950
v -0.064176 0.078054 -0.036175
v -0.521653 0.072183 -0.016209
v -0.542300 0.120534 0.047290
v -0.420979 0.314264 0.161088
v -0.334313 0.364525 0.130688
v -0.226366 0.227317 0.209556
v -0.053486 0.124163 -0.174730
v -0.157097 0.113466 -0.241038
v -0.422056 0.114040 -0.199796
v -0.088012 0.152406 0.073521
v -0.066825 0.251828 0.108706
v -0.575433 0.389920 -0.066099
v -0.506644 0.391173 0.049593
v -0.463557 0.493273 -0.060218
v -0.473652 0.411106 -0.153682
v -0.599639 0.273416 -0.013200
v -0.235905 0.066094 0.051492
v -0.320711 0.059290 0.070375
v -0.369833 0.299898 -0.244909
v -0.262151 0.140040 -0.248153
v -0.360132 0.114370 -0.229404
v -0.016123 0.377438 0.059408
v -0.130579 0.353993 -0.120731
v -0.039812 0.275087 -0.034112
v -0.041460 0.189649 -0.105705
v -0.327929 0.492075 -0.020034
v -0.237314 0.476961 -0.023687
v -0.132325 0.483838 -0.025218
v -0.468351 0.493243 0.062912
v -0.474321 0.309593 -0.173636
v -0.107791 0.221765 0.199909
v -0.521137 0.116216 0.086205
v -0.459480 0.077897 0.138748
v -0.474955 0.410213 0.123001
v -0.420742 0.362464 0.157687
v -0.257554 0.472056 0.037611
v -0.382910 0.318680 -0.231591
v -0.160672 0.396128 -0.097795
v -0.553622 0.156328 -0.101816
v -0.499980 0.227630 -0.141939
v -0.531136 0.065925 -0.135647
v -0.521135 0.032285 -0.089275
v -0.128377 0.122832 0.088515
v -0.048967 0.372367 0.118939
v -0.071919 0.373799 0.145027
v -0.113840 0.350107 0.177586
v -0.543061 0.457890 -0.097010
v -0.303708 0.297273 0.228673
v -0.223213 0.313362 0.202673
vn -0.7617 0.1419 0.6322
vn -0.6979 0.0999 0.7092
vn -0.9396 -0.1668 -0.2988
vn -0.4289 -0.0975 -0.8981
vn -0.0531 -0.4488 -0.8920
vn 0.0567 -0.0431 -0.9975
vn 0.7835 0.3105 -0.5382
vn 0.9665 -0.2038 0.1559
vn 0.7900 0.3848 -0.4773
vn 0.7818 0.3786 -0.4954
vn 0.8055 0.2379 -0.5428
vn 0.1227 0.7593 -0.6390
vn 0.0210 0.9884 0.1505
vn 0.0087 1.0000 0.0006
vn -0.5985 -0.0391 -0.8001
vn 0.0188 -0.7493 0.6620
vn -0.0465 -0.5671 0.8223
vn 0.0142 0.9963 0.0844
vn 0.5115 -0.4615 -0.7248
vn 0.5681 0.6676 -0.4812
vn -0.5281 0.0688 -0.8464
vn 0.6308 -0.6344 0.4468
vn 0.8691 -0.1682 0.4652
vn 0.1808 0.6698 0.7202
vn 0.7704 0.6186 0.1541
vn -0.7057 0.7057 0.0632
vn -0.5752 0.1614 -0.8019
vn -0.3681 0.2982 0.8807
vn -0.0849 0.7148 0.6942
vn 0.2948 0.0654 0.9533
vn 0.0844 0.0764 0.9935
vn 0.1633 0.1765 0.9706
vn -0.6677 0.0556 0.7423
vn 0.8187 0.3765 -0.4336
vn -0.4562 0.5452 0.7033
vn -0.0018 0.5864 0.8100
vn 0.3139 0.6294 0.7108
vn 0.1981 0.6986 0.6875
vn -0.9226 0.0880 0.3755
vn 0.1500 0.8018 0.5785
vn 0.1683 0.9766 0.1337
vn -0.6797 0.1027 -0.7262
vn -0.0684 0.0625 -0.9957
vn -0.5400 0.1095 -0.8345
vn 0.2488 0.0104 0.9685
vn 0.4922 -0.8366 -0.2404
vn 0.1925 0.6098 -0.7688
vn -0.0629 -0.9908 -0.1201
vn 0.9031 -0.3009 0.3064
vn 0.6272 0.5800 0.5199
vn 0.7032 0.5618 0.4358
vn 0.5434 0.1687 0.8224
vn 0.7511 0.0601 0.6575
vn 0.9188 -0.1665 0.3578
vn -0.7185 0.0261 -0.6951
vn -0.5552 0.1639 -0.8154
vn 0.1452 0.8363 0.5287
vn -0.0625 0.9873 0.1460
vn 0.0642 -0.6278 0.7757
vn 0.5943 -0.6956 0.4036
vn -0.0494 0.7036 0.7089
vt 0.190595 0.548770
vt 0.230568 0.530659
vt 0.253077 0.514683
vt 0.283644 0.536507
vt 0.310284 0.573933
vt 0.335574 0.642172
vt 0.269996 0.641614
vt 0.175181 0.639105
vt 0.367149 0.699503
vt 0.285817 0.720854
vt 0.252459 0.703355
vt 0.217686 0.731294
vt 0.190178 0.727086
vt 0.184924 0.693447
vt 0.191511 0.655347
vt 0.485312 0.865989
vt 0.444326 0.873151
vt 0.481245 0.761292
vt 0.531367 0.854365
vt 0.578886 0.876365
vt 0.575212 0.781168
vt 0.730575 0.551767
vt 0.732709 0.623596
vt 0.675010 0.645142
vt 0.798477 0.565078
vt 0.618041 0.137759
vt 0.624297 0.950034
vt 0.721091 0.700092
vt 0.755695 0.679162
vt 0.673555 0.550124
vt 0.538139 0.744735
vt 0.471282 0.736083
vt 0.449906 0.704585
vt 0.422249 0.661095
vt 0.415106 0.587238
vt 0.487838 0.554545
vt 0.543482 0.555920
vt 0.615850 0.628632
vt 0.592960 0.794243
vt 0.601029 0.434610
vt 0.610421 0.454732
vt 0.593459 0.479887
vt 0.578581 0.456598
vt 0.368711 0.550000
vt 0.341102 0.538989
vt 0.368750 0.543750
vt 0.287500 0.750000
vt 0.348062 0.707550
vt 0.595486 0.214793
vt 0.576047 0.227593
vt 0.592438 0.135331
vt 0.480414 0.094634
vt 0.530326 0.095226
vt 0.529873 0.260848
vt 0.455487 0.259191
vt 0.139964 0.628604
vt 0.523515 0.495427
vt 0.574500 0.467762
vt 0.613845 0.892655
vt 0.611334 0.950227
vt 0.628079 0.690420
vt 0.231749 0.749093
vt 0.620599 0.396864
vt 0.608154 0.378916
vt 0.623688 0.319071
vt 0.581066 0.353352
vt 0.596531 0.371963
vt 0.347875 0.550984
vt 0.386317 0.550000
vt 0.378440 0.624611
vt 0.479072 0.323733
vt 0.429124 0.357451
vt 0.469200 0.384334
vt 0.529975 0.332917
vt 0.460340 0.455725
vt 0.599834 0.299744
vt 0.426487 0.308602
vt 0.673750 0.700000
vt 0.330654 0.545709
vt 0.325682 0.509353
vt 0.268750 0.500000
vt 0.425000 0.507297
vt 0.575000 0.773427
vt 0.425000 0.712500
vt 0.607287 0.550000
vt 0.599250 0.042405
vt 0.585645 0.091951
vt 0.625000 0.162977
vt 0.575000 0.500000
vt 0.618384 0.069511
s 0
usemtl Material
f 10/1/1 16/2/1 47/3/1 46/4/1 25/5/1 24/6/1 28/7/1
f 28/7/2 44/8/2 10/1/2
f 28/7/3 24/6/3 42/9/3 52/10/3 51/11/3 53/12/3 54/13/3 14/14/3 15/15/3 44/8/3
f 33/16/4 21/17/4 31/18/4
f 32/19/5 20/20/5 33/16/5
f 8/21/6 20/20/6 32/19/6
f 34/22/7 36/23/7 35/24/7
f 36/23/8 34/22/8 23/25/8 22/26/8 13/27/8 19/28/8 37/29/8
f 36/23/9 37/29/9 35/24/9
f 37/29/10 19/28/10 35/24/10
f 4/30/11 34/22/11 35/24/11
f 7/31/12 49/32/12 1/33/12 27/34/12 26/35/12 38/36/12 39/37/12 50/38/12 8/39/12
f 3/40/13 4/41/13 40/42/13 2/43/13
f 26/44/14 41/45/14 38/46/14
f 21/47/15 52/10/15 42/48/15 49/32/15 31/18/15
f 43/49/16 18/50/16 55/51/16
f 30/52/17 29/53/17 55/51/17 18/54/17 9/55/17 16/2/17 10/1/17 44/8/17 45/56/17
f 39/37/18 48/57/18 2/58/18
f 20/20/19 8/39/19 19/59/19 11/60/19
f 35/24/20 8/61/20 50/38/20
f 53/12/21 52/10/21 21/62/21
f 43/49/22 55/51/22 22/26/22
f 34/63/23 56/64/23 23/65/23
f 3/40/24 58/66/24 57/67/24
f 4/41/25 3/40/25 34/63/25
f 5/68/26 41/69/26 26/35/26 27/34/26 59/70/26 24/6/26 25/5/26
f 27/34/27 1/33/27 42/9/27
f 60/71/28 47/72/28 9/55/28
f 17/73/29 60/71/29 61/74/29 58/66/29 2/58/29 48/57/29 6/75/29
f 18/54/30 61/74/30 60/71/30
f 43/76/31 61/74/31 18/54/31
f 43/76/32 58/66/32 61/74/32
f 9/55/33 47/72/33 16/77/33
f 35/24/34 19/28/34 8/78/34
f 41/45/35 5/79/35 46/4/35
f 46/4/36 47/3/36 41/45/36
f 6/80/37 41/45/37 47/3/37
f 6/80/38 47/3/38 17/81/38
f 5/79/39 25/5/39 46/4/39
f 41/82/40 6/75/40 48/57/40 38/46/40
f 39/37/41 38/36/41 48/57/41
f 53/12/42 51/11/42 52/10/42
f 31/18/43 49/32/43 7/83/43 8/21/43 32/19/43 33/16/43
f 49/32/44 42/84/44 1/33/44
f 18/54/45 60/71/45 9/55/45
f 13/27/46 11/60/46 19/59/46
f 50/38/47 39/37/47 40/85/47 4/30/47 35/24/47
f 21/17/48 33/16/48 20/20/48 11/86/48 12/87/48 29/53/48 30/52/48 45/56/48 44/8/48 15/15/48 14/14/48 54/13/48 53/12/48
f 23/88/49 43/49/49 22/26/49
f 57/67/50 56/64/50 3/40/50
f 34/63/51 3/40/51 56/64/51
f 43/76/52 57/67/52 58/66/52
f 43/76/53 56/64/53 57/67/53
f 43/76/54 23/65/54 56/64/54
f 42/9/55 24/6/55 59/70/55
f 59/70/56 27/34/56 42/9/56
f 60/71/57 17/73/57 47/72/57
f 40/42/58 39/89/58 2/43/58
f 29/53/59 12/87/59 55/51/59
f 11/86/60 13/90/60 22/26/60 55/51/60 12/87/60
f 2/58/61 58/66/61 3/40/61
o Cube.001
v 0.028912 0.112673 -0.033314
v 0.388050 0.219394 0.103159
v 0.411172 0.239674 0.164260
v 0.354181 0.166783 0.185110
v 0.326694 0.149739 -0.139988
v 0.345851 0.254212 -0.040053
v 0.010011 0.198455 0.085239
v 0.006693 0.217302 0.168216
v 0.454163 0.872997 -0.093169
v 0.385398 0.717539 -0.125572
v 0.113949 0.919123 0.122248
v 0.223402 1.002174 0.101661
v 0.173791 0.893628 0.176235
v 0.095855 0.840423 -0.174831
v 0.175430 0.813096 -0.202831
v 0.390318 0.587765 -0.124461
v 0.395063 0.473944 -0.046908
v 0.450618 0.845240 0.002570
v 0.047861 0.654706 0.224150
v -0.047262 0.582936 0.162234
v -0.059921 0.577048 -0.048463
v 0.310432 0.866333 0.136027
v 0.387752 0.717444 0.151261
v 0.147502 0.163414 -0.175737
v 0.283489 0.301014 -0.153725
v 0.214766 -0.008086 -0.084098
v 0.085096 0.045675 -0.074378
v 0.155473 0.441345 -0.217550
v 0.224845 0.980471 0.022821
v 0.224203 0.998285 -0.046680
v -0.028686 0.179358 0.018320
v -0.067273 0.504085 0.087003
v -0.077680 0.555605 0.006001
v 0.392447 0.430931 0.212910
v 0.171362 0.256693 0.171278
v 0.252528 0.520943 0.210681
v 0.146333 0.606614 0.220827
v 0.285023 0.063967 0.007769
v 0.294875 0.106192 0.075858
v 0.317956 0.111099 0.156100
v 0.342515 0.126250 -0.119678
v 0.027285 0.219191 -0.078250
v 0.463578 0.867748 0.094129
v 0.219036 0.868135 -0.197316
v 0.273126 1.011289 -0.167629
v 0.373863 0.350919 -0.147250
v 0.404286 0.491225 -0.119342
v 0.352926 0.179116 0.044254
v -0.010713 0.155328 0.006572
v 0.204264 0.195021 0.146152
v 0.030073 0.578300 -0.169664
v 0.025298 0.407033 -0.112749
v -0.033330 0.719553 -0.151517
v 0.005086 0.837158 -0.158835
v 0.306861 0.932137 0.099171
v 0.445927 0.499852 0.172234
v 0.468879 0.521398 0.148255
v 0.485481 0.594864 0.106161
v 0.146657 0.004658 -0.137552
v 0.479627 0.716856 -0.054895
v 0.475281 0.672525 0.013981
vn 0.3275 -0.0426 -0.9439
vn 0.3855 -0.0137 -0.9226
vn -0.4153 -0.0457 -0.9085
vn -0.9259 -0.1322 -0.3539
vn -0.9810 0.0801 0.1770
vn -0.9164 -0.1290 0.3790
vn -0.0923 -0.1191 0.9886
vn 0.1898 0.1658 0.9677
vn -0.0196 -0.1416 0.9897
vn -0.0363 -0.1427 0.9891
vn -0.1177 -0.0871 0.9892
vn -0.2239 -0.7859 0.5765
vn 0.8102 -0.5848 -0.0406
vn 0.7231 -0.6906 -0.0113
vn -0.7980 -0.1540 -0.5826
vn 0.3584 0.8935 -0.2704
vn 0.6381 0.6276 -0.4460
vn 0.7754 -0.6307 -0.0311
vn -0.6141 0.1447 0.7758
vn 0.0654 -0.3463 0.9358
vn -0.8275 -0.2194 -0.5168
vn 0.2266 0.4853 0.8445
vn 0.4194 0.1975 0.8861
vn 0.9793 -0.1983 0.0401
vn 0.5164 -0.1633 0.8407
vn 0.2188 -0.3649 -0.9050
vn -0.7546 -0.2648 -0.6004
vn 0.7291 -0.0484 -0.6827
vn 0.9147 -0.2502 -0.3173
vn 0.9760 0.1498 0.1580
vn 0.9771 0.1283 -0.1698
vn 0.9960 0.0780 -0.0445
vn 0.4039 0.0099 -0.9147
vn 0.0122 -0.1280 0.9917
vn 0.6628 -0.1816 -0.7264
vn 0.9594 -0.1622 -0.2306
vn 0.9614 -0.1629 0.2215
vn 0.9737 -0.2158 0.0725
vn 0.1044 -0.0603 -0.9927
vn 0.9544 -0.2964 0.0350
vn 0.8075 -0.5465 0.2221
vn -0.6788 -0.2145 -0.7023
vn -0.9556 -0.2129 0.2037
vn -0.8050 -0.2410 -0.5421
vn 0.9794 0.1815 0.0889
vn -0.5042 0.4174 0.7560
vn -0.4398 -0.5762 0.6889
vn -0.8026 0.5948 -0.0453
vn 0.2549 0.2285 0.9396
vn 0.7695 -0.1220 0.6269
vn 0.6904 -0.1141 0.7144
vn 0.8618 0.0912 0.4990
vn 0.6576 0.1261 0.7427
vn 0.3394 0.1797 0.9233
vn -0.6672 -0.1708 -0.7250
vn -0.7713 -0.2698 -0.5764
vn 0.9440 -0.3272 0.0421
vn 0.7801 -0.5968 -0.1879
vn 0.6269 0.7540 -0.1961
vn 0.1486 0.5278 0.8363
vn 0.9317 -0.2396 -0.2730
vt 0.190595 0.548770
vt 0.230568 0.530659
vt 0.253077 0.514683
vt 0.283644 0.536507
vt 0.310284 0.573933
vt 0.335574 0.642172
vt 0.269996 0.641614
vt 0.175181 0.639105
vt 0.367149 0.699503
vt 0.285817 0.720854
vt 0.252459 0.703355
vt 0.217686 0.731294
vt 0.190178 0.727086
vt 0.184924 0.693447
vt 0.191511 0.655347
vt 0.485312 0.865989
vt 0.444326 0.873151
vt 0.481245 0.761292
vt 0.531367 0.854365
vt 0.578886 0.876365
vt 0.575212 0.781168
vt 0.730575 0.551767
vt 0.732709 0.623596
vt 0.675010 0.645142
vt 0.798477 0.565078
vt 0.618041 0.137759
vt 0.624297 0.950034
vt 0.721091 0.700092
vt 0.755695 0.679162
vt 0.673555 0.550124
vt 0.538139 0.744735
vt 0.471282 0.736083
vt 0.449906 0.704585
vt 0.422249 0.661095
vt 0.415106 0.587238
vt 0.487838 0.554545
vt 0.543482 0.555920
vt 0.615850 0.628632
vt 0.592960 0.794243
vt 0.601029 0.434610
vt 0.610421 0.454732
vt 0.593459 0.479887
vt 0.578581 0.456598
vt 0.368711 0.550000
vt 0.341102 0.538989
vt 0.368750 0.543750
vt 0.287500 0.750000
vt 0.348062 0.707550
vt 0.595486 0.214793
vt 0.576047 0.227593
vt 0.592438 0.135331
vt 0.480414 0.094634
vt 0.530326 0.095226
vt 0.529873 0.260848
vt 0.455487 0.259191
vt 0.139964 0.628604
vt 0.523515 0.495427
vt 0.574500 0.467762
vt 0.613845 0.892655
vt 0.611334 0.950227
vt 0.628079 0.690420
vt 0.231749 0.749093
vt 0.620599 0.396864
vt 0.608154 0.378916
vt 0.623688 0.319071
vt 0.581066 0.353352
vt 0.596531 0.371963
vt 0.347875 0.550984
vt 0.386317 0.550000
vt 0.378440 0.624611
vt 0.479072 0.323733
vt 0.429124 0.357451
vt 0.469200 0.384334
vt 0.529975 0.332917
vt 0.460340 0.455725
vt 0.599834 0.299744
vt 0.426487 0.308602
vt 0.673750 0.700000
vt 0.330654 0.545709
vt 0.325682 0.509353
vt 0.268750 0.500000
vt 0.425000 0.507297
vt 0.575000 0.773427
vt 0.425000 0.712500
vt 0.607287 0.550000
vt 0.599250 0.042405
vt 0.585645 0.091951
vt 0.625000 0.162977
vt 0.575000 0.500000
vt 0.618384 0.069511
s 0
usemtl Material
f 71/91/62 77/92/62 108/93/62 107/94/62 86/95/62 85/96/62 89/97/62
f 89/97/63 105/98/63 71/91/63
f 89/97/64 85/96/64 103/99/64 113/100/64 112/101/64 114/102/64 115/103/64 75/104/64 76/105/64 105/98/64
f 94/106/65 82/107/65 92/108/65
f 93/109/66 81/110/66 94/106/66
f 69/111/67 81/110/67 93/109/67
f 95/112/68 97/113/68 96/114/68
f 97/113/69 95/112/69 84/115/69 83/116/69 74/117/69 80/118/69 98/119/69
f 97/113/70 98/119/70 96/114/70
f 98/119/71 80/118/71 96/114/71
f 65/120/72 95/112/72 96/114/72
f 68/121/73 110/122/73 62/123/73 88/124/73 87/125/73 99/126/73 100/127/73 111/128/73 69/129/73
f 64/130/74 65/131/74 101/132/74 63/133/74
f 87/134/75 102/135/75 99/136/75
f 82/137/76 113/100/76 103/138/76 110/122/76 92/108/76
f 104/139/77 79/140/77 116/141/77
f 91/142/78 90/143/78 116/141/78 79/144/78 70/145/78 77/92/78 71/91/78 105/98/78 106/146/78
f 100/127/79 109/147/79 63/148/79
f 81/110/80 69/129/80 80/149/80 72/150/80
f 96/114/81 69/151/81 111/128/81
f 114/102/82 113/100/82 82/152/82
f 104/139/83 116/141/83 83/116/83
f 95/153/84 117/154/84 84/155/84
f 64/130/85 119/156/85 118/157/85
f 65/131/86 64/130/86 95/153/86
f 66/158/87 102/159/87 87/125/87 88/124/87 120/160/87 85/96/87 86/95/87
f 88/124/88 62/123/88 103/99/88
f 121/161/89 108/162/89 70/145/89
f 78/163/90 121/161/90 122/164/90 119/156/90 63/148/90 109/147/90 67/165/90
f 79/144/91 122/164/91 121/161/91
f 104/166/92 122/164/92 79/144/92
f 104/166/93 119/156/93 122/164/93
f 70/145/94 108/162/94 77/167/94
f 96/114/95 80/118/95 69/168/95
f 102/135/96 66/169/96 107/94/96
f 107/94/97 108/93/97 102/135/97
f 67/170/98 102/135/98 108/93/98
f 67/170/99 108/93/99 78/171/99
f 66/169/100 86/95/100 107/94/100
f 102/172/101 67/165/101 109/147/101 99/136/101
f 100/127/102 99/126/102 109/147/102
f 114/102/103 112/101/103 113/100/103
f 92/108/104 110/122/104 68/173/104 69/111/104 93/109/104 94/106/104
f 110/122/105 103/174/105 62/123/105
f 79/144/106 121/161/106 70/145/106
f 74/117/107 72/150/107 80/149/107
f 111/128/108 100/127/108 101/175/108 65/120/108 96/114/108
f 82/107/109 94/106/109 81/110/109 72/176/109 73/177/109 90/143/109 91/142/109 106/146/109 105/98/109 76/105/109 75/104/109 115/103/109 114/102/109
f 84/178/110 104/139/110 83/116/110
f 118/157/111 117/154/111 64/130/111
f 95/153/112 64/130/112 117/154/112
f 104/166/113 118/157/113 119/156/113
f 104/166/114 117/154/114 118/157/114
f 104/166/115 84/155/115 117/154/115
f 103/99/116 85/96/116 120/160/116
f 120/160/117 88/124/117 103/99/117
f 121/161/118 78/163/118 108/162/118
f 101/132/119 100/179/119 63/133/119
f 90/143/120 73/177/120 116/141/120
f 72/176/121 74/180/121 83/116/121 116/141/121 73/177/121
f 63/148/122 119/156/122 64/130/122
o Cube.002
v -0.141025 0.187811 0.117865
v 0.105811 0.296248 0.312980
v 0.187915 0.298500 0.314147
v 0.197041 0.294933 0.271169
v -0.214184 0.296304 0.327727
v -0.077572 0.274091 0.321050
v 0.009992 0.155264 0.082653
v 0.114182 0.147108 0.062431
v -0.072179 0.155588 0.425627
v -0.138361 0.170283 0.384129
v 0.135106 0.006312 0.168149
v 0.137106 0.027598 0.243898
v 0.211561 0.034968 0.191739
v -0.244539 0.026802 0.221567
v -0.266523 0.065520 0.275995
v -0.146725 0.206108 0.381561
v -0.058673 0.235907 0.362085
v 0.044015 0.159234 0.400428
v 0.227613 0.047406 0.093138
v 0.126585 0.030663 0.045549
v -0.138528 0.032206 0.085602
v 0.185223 0.096135 0.284213
v 0.206611 0.164757 0.322359
v -0.291580 0.223942 0.225749
v -0.227034 0.240277 0.310413
v -0.178872 0.292787 0.239302
v -0.186975 0.228120 0.159189
v -0.319229 0.155331 0.251690
v 0.037473 0.035676 0.261898
v -0.047681 0.032391 0.278109
v -0.082213 0.146787 0.073240
v 0.022665 0.045267 0.047114
v -0.075882 0.029642 0.061308
v 0.260647 0.240071 0.299360
v 0.152507 0.200713 0.165091
v 0.238710 0.162221 0.217140
v 0.238220 0.098319 0.152750
v -0.045265 0.299094 0.264700
v 0.044822 0.290289 0.256979
v 0.149474 0.296100 0.253117
v -0.187836 0.308120 0.331894
v -0.188492 0.160371 0.131516
v 0.162280 0.156244 0.388454
v -0.246849 0.067939 0.303947
v -0.187847 0.050823 0.336491
v -0.197705 0.262187 0.366827
v -0.145647 0.236662 0.385038
v 0.022516 0.294511 0.303070
v -0.095399 0.160329 0.086036
v 0.122410 0.230212 0.188611
v -0.272176 0.069674 0.168931
v -0.216344 0.111280 0.145917
v -0.250006 0.007676 0.131445
v -0.242138 -0.007984 0.161701
v 0.144091 0.078399 0.293138
v 0.225853 0.243775 0.344533
v 0.202142 0.247618 0.365078
v 0.158953 0.235838 0.387979
v -0.257283 0.264240 0.209956
v -0.032561 0.205422 0.426176
v 0.048685 0.213718 0.405933
vn -0.6792 0.0764 0.7300
vn -0.5904 -0.0064 0.8071
vn -0.9070 -0.1483 -0.3941
vn -0.3578 0.0755 -0.9307
vn -0.0693 -0.3951 -0.9160
vn 0.0053 0.1440 -0.9896
vn 0.6003 0.4946 -0.6285
vn 0.8871 -0.3614 0.2870
vn 0.5963 0.5676 -0.5678
vn 0.5865 0.5614 -0.5838
vn 0.6441 0.4173 -0.6411
vn 0.0371 0.7891 -0.6131
vn -0.0028 0.9993 -0.0375
vn -0.0152 0.9862 -0.1648
vn -0.4919 0.1327 -0.8605
vn 0.0438 -0.7778 0.6269
vn 0.0084 -0.6614 0.7500
vn -0.0094 0.9954 -0.0957
vn 0.4357 -0.4982 -0.7497
vn 0.3428 0.7741 -0.5322
vn -0.4154 0.2569 -0.8726
vn 0.4309 -0.7375 0.5201
vn 0.7302 -0.3435 0.5906
vn 0.1613 0.7203 0.6746
vn 0.6334 0.7706 0.0705
vn -0.5362 0.8379 -0.1024
vn -0.4394 0.3481 -0.8281
vn -0.2814 0.2134 0.9356
vn -0.0601 0.7843 0.6174
vn 0.2514 -0.1186 0.9606
vn 0.0974 -0.1083 0.9893
vn 0.1582 0.0125 0.9873
vn -0.5450 -0.0758 0.8350
vn 0.6362 0.5605 -0.5302
vn -0.3832 0.6099 0.6937
vn 0.0166 0.6030 0.7976
vn 0.2752 0.6730 0.6865
vn 0.1722 0.7594 0.6274
vn -0.8959 0.0699 0.4386
vn 0.1199 0.8802 0.4593
vn 0.0933 0.9946 -0.0460
vn -0.5395 0.2859 -0.7919
vn -0.0843 0.2568 -0.9628
vn -0.4189 0.2979 -0.8578
vn 0.2139 -0.1806 0.9600
vn 0.3659 -0.9289 -0.0576
vn 0.0787 0.6952 -0.7145
vn -0.0231 -0.9977 0.0631
vn 0.7550 -0.4823 0.4443
vn 0.5487 0.6631 0.5092
vn 0.6184 0.6630 0.4219
vn 0.4631 0.0246 0.8860
vn 0.6443 -0.0867 0.7598
vn 0.8021 -0.3342 0.4949
vn -0.5921 0.1978 -0.7812
vn -0.4231 0.3507 -0.8355
vn 0.1108 0.9142 0.3897
vn -0.0570 0.9974 -0.0440
vn 0.0718 -0.6993 0.7112
vn 0.4006 -0.7784 0.4833
vn -0.0302 0.7679 0.6399
vt 0.190595 0.548770
vt 0.230568 0.530659
vt 0.253077 0.514683
vt 0.283644 0.536507
vt 0.310284 0.573933
vt 0.335574 0.642172
vt 0.269996 0.641614
vt 0.175181 0.639105
vt 0.367149 0.699503
vt 0.285817 0.720854
vt 0.252459 0.703355
vt 0.217686 0.731294
vt 0.190178 0.727086
vt 0.184924 0.693447
vt 0.191511 0.655347
vt 0.485312 0.865989
vt 0.444326 0.873151
vt 0.481245 0.761292
vt 0.531367 0.854365
vt 0.578886 0.876365
vt 0.575212 0.781168
vt 0.730575 0.551767
vt 0.732709 0.623596
vt 0.675010 0.645142
vt 0.798477 0.565078
vt 0.618041 0.137759
vt 0.624297 0.950034
vt 0.721091 0.700092
vt 0.755695 0.679162
vt 0.673555 0.550124
vt 0.538139 0.744735
vt 0.471282 0.736083
vt 0.449906 0.704585
vt 0.422249 0.661095
vt 0.415106 0.587238
vt 0.487838 0.554545
vt 0.543482 0.555920
vt 0.615850 0.628632
vt 0.592960 0.794243
vt 0.601029 0.434610
vt 0.610421 0.454732
vt 0.593459 0.479887
vt 0.578581 0.456598
vt 0.368711 0.550000
vt 0.341102 0.538989
vt 0.368750 0.543750
vt 0.287500 0.750000
vt 0.348062 0.707550
vt 0.595486 0.214793
vt 0.576047 0.227593
vt 0.592438 0.135331
vt 0.480414 0.094634
vt 0.530326 0.095226
vt 0.529873 0.260848
vt 0.455487 0.259191
vt 0.139964 0.628604
vt 0.523515 0.495427
vt 0.574500 0.467762
vt 0.613845 0.892655
vt 0.611334 0.950227
vt 0.628079 0.690420
vt 0.231749 0.749093
vt 0.620599 0.396864
vt 0.608154 0.378916
vt 0.623688 0.319071
vt 0.581066 0.353352
vt 0.596531 0.371963
vt 0.347875 0.550984
vt 0.386317 0.550000
vt 0.378440 0.624611
vt 0.479072 0.323733
vt 0.429124 0.357451
vt 0.469200 0.384334
vt 0.529975 0.332917
vt 0.460340 0.455725
vt 0.599834 0.299744
vt 0.426487 0.308602
vt 0.673750 0.700000
vt 0.330654 0.545709
vt 0.325682 0.509353
vt 0.268750 0.500000
vt 0.425000 0.507297
vt 0.575000 0.773427
vt 0.425000 0.712500
vt 0.607287 0.550000
vt 0.599250 0.042405
vt 0.585645 0.091951
vt 0.625000 0.162977
vt 0.575000 0.500000
vt 0.618384 0.069511
s 0
usemtl Material
f 132/181/123 138/182/123 169/183/123 168/184/123 147/185/123 146/186/123 150/187/123
f 150/187/124 166/188/124 132/181/124
f 150/187/125 146/186/125 164/189/125 174/190/125 173/191/125 175/192/125 176/193/125 136/194/125 137/195/125 166/188/125
f 155/196/126 143/197/126 153/198/126
f 154/199/127 142/200/127 155/196/127
f 130/201/128 142/200/128 154/199/128
f 156/202/129 158/203/129 157/204/129
f 158/203/130 156/202/130 145/205/130 144/206/130 135/207/130 141/208/130 159/209/130
f 158/203/131 159/209/131 157/204/131
f 159/209/132 141/208/132 157/204/132
f 126/210/133 156/202/133 157/204/133
f 129/211/134 171/212/134 123/213/134 149/214/134 148/215/134 160/216/134 161/217/134 172/218/134 130/219/134
f 125/220/135 126/221/135 162/222/135 124/223/135
f 148/224/136 163/225/136 160/226/136
f 143/227/137 174/190/137 164/228/137 171/212/137 153/198/137
f 165/229/138 140/230/138 177/231/138
f 152/232/139 151/233/139 177/231/139 140/234/139 131/235/139 138/182/139 132/181/139 166/188/139 167/236/139
f 161/217/140 170/237/140 124/238/140
f 142/200/141 130/219/141 141/239/141 133/240/141
f 157/204/142 130/241/142 172/218/142
f 175/192/143 174/190/143 143/242/143
f 165/229/144 177/231/144 144/206/144
f 156/243/145 178/244/145 145/245/145
f 125/220/146 180/246/146 179/247/146
f 126/221/147 125/220/147 156/243/147
f 127/248/148 163/249/148 148/215/148 149/214/148 181/250/148 146/186/148 147/185/148
f 149/214/149 123/213/149 164/189/149
f 182/251/150 169/252/150 131/235/150
f 139/253/151 182/251/151 183/254/151 180/246/151 124/238/151 170/237/151 128/255/151
f 140/234/152 183/254/152 182/251/152
f 165/256/153 183/254/153 140/234/153
f 165/256/154 180/246/154 183/254/154
f 131/235/155 169/252/155 138/257/155
f 157/204/156 141/208/156 130/258/156
f 163/225/157 127/259/157 168/184/157
f 168/184/158 169/183/158 163/225/158
f 128/260/159 163/225/159 169/183/159
f 128/260/160 169/183/160 139/261/160
f 127/259/161 147/185/161 168/184/161
f 163/262/162 128/255/162 170/237/162 160/226/162
f 161/217/163 160/216/163 170/237/163
f 175/192/164 173/191/164 174/190/164
f 153/198/165 171/212/165 129/263/165 130/201/165 154/199/165 155/196/165
f 171/212/166 164/264/166 123/213/166
f 140/234/167 182/251/167 131/235/167
f 135/207/168 133/240/168 141/239/168
f 172/218/169 161/217/169 162/265/169 126/210/169 157/204/169
f 143/197/170 155/196/170 142/200/170 133/266/170 134/267/170 151/233/170 152/232/170 167/236/170 166/188/170 137/195/170 136/194/170 176/193/170 175/192/170
f 145/268/171 165/229/171 144/206/171
f 179/247/172 178/244/172 125/220/172
f 156/243/173 125/220/173 178/244/173
f 165/256/174 179/247/174 180/246/174
f 165/256/175 178/244/175 179/247/175
f 165/256/176 145/245/176 178/244/176
f 164/189/177 146/186/177 181/250/177
f 181/250/178 149/214/178 164/189/178
f 182/251/179 139/253/179 169/252/179
f 162/222/180 161/269/180 124/223/180
f 151/233/181 134/267/181 177/231/181
f 133/266/182 135/270/182 144/206/182 177/231/182 134/267/182
f 124/238/183 180/246/183 125/220/183
