# Blender 4.4.1
# www.blender.org
mtllib F-14.mtl
o 円錐.001
v 0.000000 0.506884 -0.058903
v 0.077930 0.516216 -0.057767
v 0.152866 0.543852 -0.054404
v 0.221927 0.588730 -0.048942
v 0.282459 0.649126 -0.041591
v 0.332137 0.722719 -0.032635
v 0.369051 0.806680 -0.022416
v 0.391782 0.897784 -0.011328
v 0.399458 0.992528 0.000203
v 0.391782 1.087272 0.011734
v 0.369051 1.178376 0.022821
v 0.332137 1.262337 0.033040
v 0.282459 1.335930 0.041997
v 0.221927 1.396326 0.049347
v 0.152866 1.441204 0.054809
v 0.077930 1.468840 0.058173
v 0.000000 1.478172 0.059308
v -0.077930 1.468840 0.058173
v -0.152866 1.441204 0.054809
v -0.221927 1.396326 0.049347
v -0.282459 1.335930 0.041997
v -0.332137 1.262337 0.033040
v -0.369051 1.178376 0.022821
v -0.391782 1.087272 0.011734
v -0.399458 0.992528 0.000203
v -0.391782 0.897784 -0.011328
v -0.369051 0.806680 -0.022416
v -0.332137 0.722719 -0.032635
v -0.282459 0.649126 -0.041591
v -0.221927 0.588730 -0.048942
v -0.152866 0.543852 -0.054404
v -0.077930 0.516216 -0.057767
v 0.000000 1.039680 -2.101440
v 0.000000 1.478181 0.058903
v 0.077930 1.468849 0.057767
v 0.152866 1.441213 0.054404
v 0.221927 1.396335 0.048942
v 0.282459 1.335939 0.041591
v 0.332137 1.262346 0.032635
v 0.369051 1.178385 0.022416
v 0.391782 1.087281 0.011328
v 0.399458 0.992537 -0.000203
v 0.391782 0.897793 -0.011734
v 0.369051 0.806689 -0.022821
v 0.332137 0.722728 -0.033040
v 0.282459 0.649135 -0.041996
v 0.221927 0.588739 -0.049347
v 0.152866 0.543861 -0.054809
v 0.077930 0.516225 -0.058172
v 0.000000 0.506893 -0.059308
v -0.077930 0.516225 -0.058172
v -0.152866 0.543861 -0.054809
v -0.221927 0.588739 -0.049347
v -0.282459 0.649135 -0.041996
v -0.332137 0.722728 -0.033040
v -0.369051 0.806689 -0.022821
v -0.391782 0.897793 -0.011734
v -0.399458 0.992537 -0.000203
v -0.391782 1.087281 0.011328
v -0.369051 1.178385 0.022416
v -0.332137 1.262346 0.032635
v -0.282459 1.335939 0.041591
v -0.221927 1.396335 0.048942
v -0.152866 1.441213 0.054404
v -0.077930 1.468849 0.057767
v 0.000000 0.945385 2.101440
v -0.538042 0.758818 -0.114979
v -0.538042 0.775945 -0.114979
v -0.352383 0.643214 -3.689921
v -0.352383 0.891549 -3.689921
v 0.538042 0.758818 -0.114979
v 0.538042 0.775945 -0.114979
v 0.352383 0.643214 -3.689921
v 0.352383 0.891549 -3.689921
v -0.712741 0.669298 -0.913208
v -0.712741 1.073253 -0.913208
v 0.712741 0.669298 -0.913208
v 0.712741 1.073253 -0.913208
v -0.555748 1.112836 -2.129650
v 0.555748 0.629715 -2.129650
v -0.555748 0.629715 -2.129650
v 0.555748 1.112836 -2.129650
v 1.984255 0.778635 -3.532819
v 1.899149 0.775400 -2.850038
v 1.899149 0.759363 -2.850038
v 1.984255 0.756127 -3.532819
v -1.976872 0.756127 -3.529156
v -1.891766 0.759363 -2.846375
v -1.891766 0.775400 -2.846375
v -1.976872 0.778635 -3.529156
v -0.343063 0.782303 -2.898292
v 0.343063 0.752459 -2.898292
v -0.343063 0.752459 -2.898292
v 0.343063 0.782303 -2.898292
v 0.932177 0.891549 -3.689921
v 0.932177 0.643214 -3.689921
v -0.922595 0.891549 -3.689921
v -0.922595 0.643214 -3.689921
v 0.315940 0.643214 -3.689921
v 0.315940 0.891549 -3.689921
v -0.312665 1.984335 -3.554406
v -0.321158 1.984335 -3.689921
v 0.307584 1.056796 -2.898292
v 0.307584 0.477966 -2.898292
v -0.321158 0.643214 -3.689921
v 0.307584 1.984335 -3.554406
v 0.343063 1.984335 -3.554406
v 0.352383 1.984335 -3.689921
v -0.312665 0.477966 -2.898292
v -0.321158 0.891549 -3.689921
v 0.315940 1.984335 -3.689921
v -0.352383 1.984335 -3.689921
v -0.343063 1.984335 -3.554406
v -0.312665 1.056796 -2.898292
vn 0.1187 -0.9608 -0.2506
vn 0.3451 -0.9060 -0.2452
vn 0.5426 -0.8062 -0.2358
vn 0.7018 -0.6761 -0.2244
vn 0.8216 -0.5287 -0.2129
vn 0.9053 -0.3734 -0.2025
vn 0.9571 -0.2152 -0.1940
vn 0.9806 -0.0566 -0.1877
vn 0.9777 0.1016 -0.1836
vn 0.9487 0.2588 -0.1817
vn 0.8918 0.4142 -0.1820
vn 0.8041 0.5652 -0.1841
vn 0.6823 0.7066 -0.1876
vn 0.5241 0.8298 -0.1917
vn 0.3316 0.9230 -0.1954
vn 0.1137 0.9737 -0.1976
vn -0.1137 0.9737 -0.1976
vn -0.3316 0.9230 -0.1954
vn -0.5241 0.8298 -0.1917
vn -0.6823 0.7066 -0.1876
vn -0.8041 0.5652 -0.1841
vn -0.8918 0.4142 -0.1820
vn -0.9487 0.2588 -0.1817
vn -0.9777 0.1016 -0.1836
vn -0.9806 -0.0566 -0.1877
vn -0.9571 -0.2152 -0.1940
vn -0.9053 -0.3734 -0.2025
vn -0.8216 -0.5287 -0.2129
vn -0.7018 -0.6761 -0.2244
vn -0.5426 -0.8062 -0.2358
vn -0.0000 -0.1208 0.9927
vn -0.3451 -0.9060 -0.2452
vn -0.1187 -0.9608 -0.2506
vn 0.1187 0.9608 0.2506
vn 0.3451 0.9060 0.2452
vn 0.5426 0.8062 0.2358
vn 0.7018 0.6761 0.2244
vn 0.8216 0.5287 0.2129
vn 0.9053 0.3734 0.2025
vn 0.9571 0.2152 0.1940
vn 0.9806 0.0566 0.1877
vn 0.9777 -0.1016 0.1836
vn 0.9487 -0.2588 0.1817
vn 0.8918 -0.4142 0.1820
vn 0.8041 -0.5652 0.1841
vn 0.6823 -0.7066 0.1876
vn 0.5241 -0.8298 0.1917
vn 0.3316 -0.9230 0.1954
vn 0.1137 -0.9737 0.1976
vn -0.1137 -0.9737 0.1976
vn -0.3316 -0.9230 0.1954
vn -0.5241 -0.8298 0.1917
vn -0.6823 -0.7066 0.1876
vn -0.8041 -0.5652 0.1841
vn -0.8918 -0.4142 0.1820
vn -0.9487 -0.2588 0.1817
vn -0.9777 -0.1016 0.1836
vn -0.9806 0.0566 0.1877
vn -0.9571 0.2152 0.1940
vn -0.9053 0.3734 0.2025
vn -0.8216 0.5287 0.2129
vn -0.7018 0.6761 0.2244
vn -0.5426 0.8062 0.2358
vn -0.0000 0.1208 -0.9927
vn -0.3451 0.9060 0.2452
vn -0.1187 0.9608 0.2506
vn -0.0000 0.9906 0.1367
vn -0.0000 -0.0000 -1.0000
vn 0.9769 -0.0000 0.2138
vn -0.0000 1.0000 -0.0000
vn -0.0000 -0.0000 1.0000
vn -0.0000 0.9371 0.3490
vn 0.9998 -0.0056 -0.0173
vn 0.2498 0.9682 0.0124
vn -0.9769 -0.0000 0.2138
vn 0.9638 -0.0000 -0.2667
vn -0.9213 0.2040 0.3311
vn -0.0000 0.9995 0.0325
vn -0.2511 0.9679 0.0123
vn 0.9923 -0.0000 0.1237
vn -0.7008 -0.0000 -0.7134
vn 0.8527 -0.0000 0.5223
vn 0.1058 -0.9942 0.0184
vn -0.9923 -0.0000 0.1237
vn 0.7017 -0.0000 -0.7125
vn -0.1063 -0.9942 0.0184
vn -0.8537 -0.0000 0.5207
vn 0.8970 0.2319 0.3763
vn 0.9673 -0.2535 0.0018
vn -0.9638 -0.0000 -0.2667
vn 0.8022 -0.0000 0.5970
vn -0.0000 -0.9906 0.1367
vn -0.8069 -0.0000 0.5907
vn -0.0000 -0.9789 -0.2043
vn -0.0000 -0.9995 0.0325
vn -0.0000 -0.9951 0.0993
vn -0.0000 0.9858 -0.1681
vn -0.9757 -0.2190 0.0032
vn -0.0000 0.9789 -0.2043
vn -0.9998 0.0059 0.0208
vn 0.9998 0.0059 0.0208
vn -0.0000 -0.9938 0.1114
vn -0.9998 -0.0055 -0.0170
vt 0.175609 0.266557
vt 0.136008 0.136008
vt 0.200317 0.256322
vt 0.222553 0.241465
vt 0.241464 0.222555
vt 0.256322 0.200318
vt 0.266557 0.175610
vt 0.271774 0.149381
vt 0.271774 0.122637
vt 0.266557 0.096407
vt 0.256322 0.071699
vt 0.241465 0.049463
vt 0.222554 0.030552
vt 0.200318 0.015694
vt 0.175610 0.005459
vt 0.149380 0.000242
vt 0.122637 0.000242
vt 0.096407 0.005459
vt 0.071699 0.015694
vt 0.049463 0.030551
vt 0.030552 0.049461
vt 0.015694 0.071698
vt 0.005459 0.096406
vt 0.000242 0.122636
vt 0.000242 0.149379
vt 0.005459 0.175609
vt 0.015694 0.200317
vt 0.030551 0.222553
vt 0.049461 0.241464
vt 0.071698 0.256322
vt 0.096406 0.266557
vt 0.122635 0.271774
vt 0.334644 0.295131
vt 0.337000 0.283287
vt 0.337000 0.271211
vt 0.334644 0.259367
vt 0.330023 0.248211
vt 0.323314 0.238170
vt 0.314775 0.229632
vt 0.304734 0.222923
vt 0.293577 0.218302
vt 0.281734 0.215946
vt 0.269658 0.215946
vt 0.257814 0.218302
vt 0.246658 0.222923
vt 0.236617 0.229632
vt 0.228079 0.238171
vt 0.221370 0.248212
vt 0.216749 0.259368
vt 0.214393 0.271212
vt 0.214393 0.283288
vt 0.216749 0.295131
vt 0.221370 0.306288
vt 0.228079 0.316328
vt 0.236618 0.324867
vt 0.246658 0.331576
vt 0.257815 0.336197
vt 0.269659 0.338553
vt 0.281734 0.338553
vt 0.293578 0.336197
vt 0.304735 0.331576
vt 0.314775 0.324867
vt 0.323314 0.316328
vt 0.330023 0.306287
vt 0.149379 0.271774
vt 0.948434 0.256363
vt 0.863843 0.363394
vt 0.925928 0.241917
vt 0.901036 0.232139
vt 0.874715 0.227405
vt 0.847976 0.227897
vt 0.821847 0.233596
vt 0.797331 0.244283
vt 0.775372 0.259548
vt 0.756813 0.278803
vt 0.742366 0.301309
vt 0.732588 0.326201
vt 0.727854 0.352522
vt 0.728346 0.379261
vt 0.734045 0.405391
vt 0.744732 0.429906
vt 0.759997 0.451865
vt 0.779252 0.470425
vt 0.801759 0.484871
vt 0.826650 0.494649
vt 0.852971 0.499383
vt 0.879710 0.498891
vt 0.905840 0.493192
vt 0.930355 0.482505
vt 0.952314 0.467240
vt 0.970874 0.447985
vt 0.985320 0.425479
vt 0.995098 0.400587
vt 0.999833 0.374266
vt 0.999341 0.347527
vt 0.993641 0.321397
vt 0.982954 0.296882
vt 0.379681 0.080818
vt 0.382036 0.068974
vt 0.382036 0.056898
vt 0.379681 0.045054
vt 0.375060 0.033898
vt 0.368351 0.023857
vt 0.359812 0.015319
vt 0.349771 0.008610
vt 0.338615 0.003989
vt 0.326771 0.001633
vt 0.314695 0.001633
vt 0.302851 0.003989
vt 0.291695 0.008610
vt 0.281654 0.015319
vt 0.273116 0.023858
vt 0.266407 0.033898
vt 0.261786 0.045055
vt 0.259430 0.056898
vt 0.259430 0.068974
vt 0.261786 0.080818
vt 0.266407 0.091974
vt 0.273116 0.102015
vt 0.281655 0.110554
vt 0.291695 0.117262
vt 0.302852 0.121884
vt 0.314696 0.124239
vt 0.326771 0.124239
vt 0.338615 0.121884
vt 0.349771 0.117262
vt 0.359812 0.110553
vt 0.368351 0.102015
vt 0.375059 0.091974
vt 0.967690 0.274923
vt 0.758377 0.747418
vt 0.784235 0.707133
vt 0.360796 0.419620
vt 0.576088 0.557810
vt 0.568942 0.568942
vt 0.353650 0.430752
vt 0.284151 0.539027
vt 0.499444 0.677217
vt 0.430752 0.784235
vt 0.215460 0.646045
vt 0.774697 0.701011
vt 0.758377 0.747418
vt 0.748838 0.741296
vt 0.568942 0.568943
vt 0.580075 0.576088
vt 0.554217 0.616374
vt 0.543084 0.609228
vt 0.292562 0.999527
vt 0.077269 0.861337
vt 0.714736 0.815408
vt 0.646045 0.922425
vt 0.748838 0.741296
vt 0.517977 0.648344
vt 0.499444 0.677217
vt 0.517977 0.648344
vt 0.630031 0.000167
vt 0.845323 0.138358
vt 0.776632 0.245375
vt 0.561339 0.107185
vt 0.327792 0.471038
vt 0.302684 0.510154
vt 0.733269 0.786534
vt 0.733269 0.786534
vt 0.302684 0.510154
vt 0.284151 0.539027
vt 0.561339 0.107185
vt 0.776632 0.245375
vt 0.758099 0.274249
vt 0.542806 0.136058
vt 0.087392 0.371963
vt 0.068859 0.400837
vt 0.554217 0.616374
vt 0.342518 0.423607
vt 0.316660 0.463892
vt 0.732991 0.313365
vt 0.517699 0.175174
vt 0.707133 0.353650
vt 0.491841 0.215460
vt 0.138358 0.292562
vt 0.112500 0.332847
vt 0.707133 0.353650
vt 0.147896 0.298684
vt 0.122038 0.338970
vt 0.701010 0.363188
vt 0.485718 0.224998
vt 0.000167 0.507854
s 1
usemtl マテリアル
f 1/1/1 33/2/1 2/3/1
f 2/3/2 33/2/2 3/4/2
f 3/4/3 33/2/3 4/5/3
f 4/5/4 33/2/4 5/6/4
f 5/6/5 33/2/5 6/7/5
f 6/7/6 33/2/6 7/8/6
f 7/8/7 33/2/7 8/9/7
f 8/9/8 33/2/8 9/10/8
f 9/10/9 33/2/9 10/11/9
f 10/11/10 33/2/10 11/12/10
f 11/12/11 33/2/11 12/13/11
f 12/13/12 33/2/12 13/14/12
f 13/14/13 33/2/13 14/15/13
f 14/15/14 33/2/14 15/16/14
f 15/16/15 33/2/15 16/17/15
f 16/17/16 33/2/16 17/18/16
f 17/18/17 33/2/17 18/19/17
f 18/19/18 33/2/18 19/20/18
f 19/20/19 33/2/19 20/21/19
f 20/21/20 33/2/20 21/22/20
f 21/22/21 33/2/21 22/23/21
f 22/23/22 33/2/22 23/24/22
f 23/24/23 33/2/23 24/25/23
f 24/25/24 33/2/24 25/26/24
f 25/26/25 33/2/25 26/27/25
f 26/27/26 33/2/26 27/28/26
f 27/28/27 33/2/27 28/29/27
f 28/29/28 33/2/28 29/30/28
f 29/30/29 33/2/29 30/31/29
f 30/31/30 33/2/30 31/32/30
f 1/33/31 2/34/31 3/35/31 4/36/31 5/37/31 6/38/31 7/39/31 8/40/31 9/41/31 10/42/31 11/43/31 12/44/31 13/45/31 14/46/31 15/47/31 16/48/31 17/49/31 18/50/31 19/51/31 20/52/31 21/53/31 22/54/31 23/55/31 24/56/31 25/57/31 26/58/31 27/59/31 28/60/31 29/61/31 30/62/31 31/63/31 32/64/31
f 31/32/32 33/2/32 32/65/32
f 32/65/33 33/2/33 1/1/33
f 34/66/34 66/67/34 35/68/34
f 35/68/35 66/67/35 36/69/35
f 36/69/36 66/67/36 37/70/36
f 37/70/37 66/67/37 38/71/37
f 38/71/38 66/67/38 39/72/38
f 39/72/39 66/67/39 40/73/39
f 40/73/40 66/67/40 41/74/40
f 41/74/41 66/67/41 42/75/41
f 42/75/42 66/67/42 43/76/42
f 43/76/43 66/67/43 44/77/43
f 44/77/44 66/67/44 45/78/44
f 45/78/45 66/67/45 46/79/45
f 46/79/46 66/67/46 47/80/46
f 47/80/47 66/67/47 48/81/47
f 48/81/48 66/67/48 49/82/48
f 49/82/49 66/67/49 50/83/49
f 50/83/50 66/67/50 51/84/50
f 51/84/51 66/67/51 52/85/51
f 52/85/52 66/67/52 53/86/52
f 53/86/53 66/67/53 54/87/53
f 54/87/54 66/67/54 55/88/54
f 55/88/55 66/67/55 56/89/55
f 56/89/56 66/67/56 57/90/56
f 57/90/57 66/67/57 58/91/57
f 58/91/58 66/67/58 59/92/58
f 59/92/59 66/67/59 60/93/59
f 60/93/60 66/67/60 61/94/60
f 61/94/61 66/67/61 62/95/61
f 62/95/62 66/67/62 63/96/62
f 63/96/63 66/67/63 64/97/63
f 34/98/64 35/99/64 36/100/64 37/101/64 38/102/64 39/103/64 40/104/64 41/105/64 42/106/64 43/107/64 44/108/64 45/109/64 46/110/64 47/111/64 48/112/64 49/113/64 50/114/64 51/115/64 52/116/64 53/117/64 54/118/64 55/119/64 56/120/64 57/121/64 58/122/64 59/123/64 60/124/64 61/125/64 62/126/64 63/127/64 64/128/64 65/129/64
f 64/97/65 66/67/65 65/130/65
f 65/130/66 66/67/66 34/66/66
f 91/131/67 70/132/67 97/132/67
f 99/133/68 100/134/68 74/135/68 73/136/68
f 77/137/69 78/138/69 72/139/69 71/140/69
f 102/141/70 112/132/70 113/142/70 101/143/70
f 108/144/70 111/145/70 106/146/70 107/147/70
f 71/140/71 72/139/71 68/148/71 67/149/71
f 78/138/72 76/150/72 68/151/72 72/139/72
f 114/152/73 110/141/73 102/141/73 101/143/73
f 82/153/74 78/138/74 84/154/74 83/155/74
f 67/156/75 68/157/75 76/158/75 75/159/75
f 92/160/76 94/147/76 82/153/76 80/161/76
f 91/131/77 114/152/77 101/143/77 113/142/77
f 82/153/78 79/162/78 76/150/78 78/138/78
f 76/150/79 79/162/79 90/163/79 89/150/79
f 86/164/80 83/155/80 84/154/80 85/165/80
f 80/161/81 82/153/81 83/155/81 86/164/81
f 78/138/82 77/137/82 85/165/82 84/154/82
f 77/137/83 80/161/83 86/164/83 85/165/83
f 88/166/84 89/167/84 90/168/84 87/169/84
f 79/168/85 81/169/85 87/169/85 90/168/85
f 81/170/86 75/171/86 88/171/86 87/170/86
f 75/159/87 76/158/87 89/167/87 88/166/87
f 103/172/88 94/147/88 107/147/88 106/146/88
f 99/173/89 73/136/89 92/160/89 104/174/89
f 73/136/68 74/135/68 95/144/68 96/136/68
f 81/169/90 79/168/90 91/175/90 93/176/90
f 96/136/91 95/144/91 94/147/91 92/160/91
f 92/160/92 73/136/92 96/136/92
f 74/135/67 94/147/67 95/144/67
f 93/176/93 91/175/93 97/177/93 98/178/93
f 69/179/92 93/180/92 98/179/92
f 70/181/68 69/178/68 98/178/68 97/177/68
f 105/182/94 99/173/94 104/174/94 109/183/94
f 110/184/68 70/181/68 112/181/68 102/184/68
f 105/185/68 110/184/68 100/134/68 99/133/68
f 69/178/68 70/181/68 110/184/68 105/185/68
f 81/170/95 80/161/95 77/137/95 75/171/95
f 109/183/96 104/174/96 92/160/96 80/161/96 81/170/96 93/180/96
f 94/147/97 103/172/97 114/152/97 91/131/97 79/162/97 82/153/97
f 69/179/98 105/182/98 109/183/98 93/180/98
f 100/145/99 110/141/99 114/152/99 103/172/99
f 74/135/68 100/134/68 111/134/68 108/144/68
f 70/132/100 91/131/100 113/142/100 112/132/100
f 94/147/101 74/135/101 108/144/101 107/147/101
f 75/171/102 77/137/102 71/140/102 67/186/102
f 100/145/103 103/172/103 106/146/103 111/145/103
